<svg width="46" height="50" viewBox="0 0 46 50" fill="none" xmlns="http://www.w3.org/2000/svg">
<g clip-path="url(#clip0_44_3)">
<path d="M46 26.9231C46 30.0481 45.3911 33.0329 44.1732 35.8774C42.9553 38.722 41.3181 41.1759 39.2617 43.2392C37.2053 45.3025 34.7595 46.9451 31.9245 48.1671C29.0894 49.389 26.1146 50 23 50C19.8854 50 16.9106 49.389 14.0755 48.1671C11.2405 46.9451 8.7947 45.3025 6.73828 43.2392C4.68186 41.1759 3.0447 38.722 1.82682 35.8774C0.608941 33.0329 0 30.0481 0 26.9231C0 23.2772 0.803602 19.8417 2.41081 16.6166C4.01801 13.3914 6.27908 10.6871 9.19401 8.50361C10.0525 7.86258 11.0059 7.61218 12.054 7.7524C13.1022 7.89263 13.9358 8.39343 14.5547 9.25481C15.1936 10.0962 15.4382 11.0427 15.2884 12.0944C15.1387 13.146 14.6445 13.9924 13.806 14.6334C11.8494 16.1158 10.337 17.9287 9.26888 20.0721C8.20074 22.2155 7.66667 24.4992 7.66667 26.9231C7.66667 29.0064 8.07096 30.9946 8.87956 32.8876C9.68815 34.7806 10.7812 36.4183 12.1589 37.8005C13.5365 39.1827 15.1686 40.2794 17.0553 41.0907C18.9421 41.902 20.9236 42.3077 23 42.3077C25.0764 42.3077 27.0579 41.902 28.9447 41.0907C30.8314 40.2794 32.4635 39.1827 33.8411 37.8005C35.2188 36.4183 36.3118 34.7806 37.1204 32.8876C37.929 30.9946 38.3333 29.0064 38.3333 26.9231C38.3333 24.4992 37.7993 22.2155 36.7311 20.0721C35.663 17.9287 34.1506 16.1158 32.194 14.6334C31.3555 13.9924 30.8613 13.146 30.7116 12.0944C30.5618 11.0427 30.8064 10.0962 31.4453 9.25481C32.0642 8.39343 32.9028 7.89263 33.9609 7.7524C35.0191 7.61218 35.9674 7.86258 36.806 8.50361C39.7209 10.6871 41.982 13.3914 43.5892 16.6166C45.1964 19.8417 46 23.2772 46 26.9231ZM26.8333 3.84615V23.0769C26.8333 24.1186 26.454 25.02 25.6953 25.7812C24.9366 26.5425 24.0382 26.9231 23 26.9231C21.9618 26.9231 21.0634 26.5425 20.3047 25.7812C19.546 25.02 19.1667 24.1186 19.1667 23.0769V3.84615C19.1667 2.80449 19.546 1.90304 20.3047 1.14183C21.0634 0.380609 21.9618 0 23 0C24.0382 0 24.9366 0.380609 25.6953 1.14183C26.454 1.90304 26.8333 2.80449 26.8333 3.84615Z" fill="black"/>
</g>
<defs>
<clipPath id="clip0_44_3">
<rect width="46" height="50" fill="white"/>
</clipPath>
</defs>
</svg>
